#!OML:ASF X:\für Bonn\!DataBase\2005_08_12_Daniel\c3d\Daniel.ASF
:FULLY-SPECIFIED
:DEGREES
193
root 17.1016 1.66432 0.603754 -1633.73 263.168 127.362
lowerback 74.806 -5.15556 10.748
upperback 15.6612 -3.89639 -5.71851
thorax -3.44019 -2.91699 -9.132
lowerneck 7.55989 7.85161 -4.06541
upperneck 12.4128 10.5258 -11.9933
head 3.31616 4.45607 -3.27407
rclavicle 3.97569e-015 3.49861e-014
rhumerus -437.362 46.7002 248.158
rradius 50.4028
rwrist 31.4229
rhand -36.6556 757.093
rfingers 7.12502
rthumb -9.74233 727.338
lclavicle 3.97569e-015 3.49861e-014
lhumerus -559.164 177.441 -456.596
lradius 42.0704
lwrist 0.549875
lhand -65.1708 -733.429
lfingers 7.12502
lthumb -37.0592 12.6202
rfemur -625.715 -144.275 585.907
rtibia 106.853
rfoot 16.8321 -18.2313
rtoes 31.0616
lfemur 98.9214 108.078 119.507
ltibia 132.856
lfoot 26.2148 55.624
ltoes 22.8193
194
root 17.1445 1.60653 0.611308 -1635.05 263.442 127.847
lowerback 73.9661 -5.20605 10.7448
upperback 15.9875 -4.00687 -5.38878
thorax -3.12176 -3.01291 -8.71396
lowerneck 7.38954 7.75954 -3.44113
upperneck 13.1302 10.5979 -12.7085
head 3.24042 4.42038 -3.25013
rclavicle 2.14687e-014 -3.97569e-014
rhumerus -436.55 46.2946 248.364
rradius 50.3237
rwrist 31.043
rhand -37.1822 757.177
rfingers 7.12502
rthumb -10.2504 727.447
lclavicle 2.14687e-014 -3.97569e-014
lhumerus -559.169 177.958 -456.182
lradius 42.4051
lwrist 1.27572
lhand -64.5819 -731.544
lfingers 7.12502
lthumb -36.502 14.6474
rfemur -624.3 -143.857 585.358
rtibia 105.777
rfoot 17.3272 -18.295
rtoes 30.8257
lfemur 100.384 112.162 120.747
ltibia 131.348
lfoot -5.24107 64.6901
ltoes 16.5469
195
root 17.1773 1.56522 0.614 -1636.25 263.629 128.172
lowerback 73.1209 -5.31606 10.7714
upperback 16.3048 -4.16096 -5.067
thorax -2.81467 -3.12645 -8.3032
lowerneck 7.63126 7.70741 -3.24251
upperneck 13.2913 10.5434 -12.9493
head 3.26738 4.3861 -3.36514
rclavicle 1.31198e-014 -1.11319e-014
rhumerus -435.806 45.9318 248.422
rradius 50.2018
rwrist 30.4083
rhand -37.7395 757.25
rfingers 7.12502
rthumb -10.788 727.547
lclavicle 1.31198e-014 -1.11319e-014
lhumerus -559.155 178.215 -455.866
lradius 42.6034
lwrist 1.61607
lhand -63.7774 -729.58
lfingers 7.12502
lthumb -35.74 16.7996
rfemur -622.724 -143.316 584.768
rtibia 104.725
rfoot 17.7074 -18.0938
rtoes 29.8724
lfemur 102.302 116.318 122.393
ltibia 129.596
lfoot -56.6343 60.5049
ltoes 9.17254
196
root 17.2009 1.53634 0.610217 -1637.34 263.774 128.377
lowerback 72.2771 -5.40857 10.7819
upperback 16.615 -4.30832 -4.72586
thorax -2.50851 -3.24063 -7.87158
lowerneck 8.05266 7.6981 -3.50853
upperneck 13.2803 10.4488 -12.8483
head 3.17559 4.33994 -3.31357
rclavicle 4.37326e-015 -7.95139e-015
rhumerus -434.98 45.5889 248.545
rradius 49.9833
rwrist 29.7382
rhand -38.4155 757.429
rfingers 7.12502
rthumb -11.44 727.762
lclavicle 4.37326e-015 -7.95139e-015
lhumerus -559.038 178.1 -455.611
lradius 42.5614
lwrist 1.48022
lhand -62.7355 -727.766
lfingers 7.12502
lthumb -34.752 18.848
rfemur -621.012 -142.765 584.121
rtibia 103.709
rfoot 18.0151 -17.5881
rtoes 28.7568
lfemur 104.391 120.525 124.159
ltibia 127.732
lfoot -87.1921 45.8015
ltoes 7.55404
197
root 17.2088 1.51176 0.600107 -1638.64 263.888 128.797
lowerback 71.3555 -5.5047 10.7744
upperback 16.9619 -4.49413 -4.45559
thorax -2.17709 -3.36378 -7.50703
lowerneck 8.87091 7.71975 -3.99133
upperneck 12.6593 10.2218 -12.2803
head 3.18441 4.3065 -3.44536
rclavicle 1.07344e-014 -3.18055e-014
rhumerus -434.003 45.2546 248.621
rradius 49.6006
rwrist 29.0938
rhand -39.247 757.723
rfingers 7.12502
rthumb -12.2418 728.101
lclavicle 1.07344e-014 -3.18055e-014
lhumerus -558.844 177.867 -455.546
lradius 42.3946
lwrist 1.20743
lhand -61.4384 -725.785
lfingers 7.12502
lthumb -33.5201 21.1043
rfemur -619.298 -142.294 583.423
rtibia 102.785
rfoot 18.2456 -16.9127
rtoes 27.3672
lfemur 106.459 124.78 125.754
ltibia 125.626
lfoot -106.61 33.9728
ltoes 13.4883
198
root 17.2064 1.49013 0.584703 -1639.94 263.983 129.181
lowerback 70.3816 -5.61199 10.7741
upperback 17.3461 -4.70881 -4.25641
thorax -1.81319 -3.49116 -7.22313
lowerneck 9.7226 7.71482 -4.13707
upperneck 12.2699 10.0518 -12.1218
head 2.86929 4.26994 -3.39514
rclavicle 1.90833e-014 4.29375e-014
rhumerus -432.832 44.8352 248.759
rradius 49.034
rwrist 28.5305
rhand -40.1914 758.271
rfingers 7.12502
rthumb -13.1523 728.706
lclavicle 1.90833e-014 4.29375e-014
lhumerus -558.606 177.525 -455.681
lradius 42.1233
lwrist 0.848247
lhand -59.9025 -724.215
lfingers 7.12502
lthumb -32.059 22.9793
rfemur -617.459 -141.87 582.647
rtibia 101.912
rfoot 18.2781 -16.1973
rtoes 26.0848
lfemur 108.603 129.044 127.31
ltibia 123.543
lfoot -120.635 25.8049
ltoes 20.6554
199
root 17.204 1.47023 0.566265 -1641.36 264.08 129.691
lowerback 69.3491 -5.7074 10.7644
upperback 17.7549 -4.93247 -4.11127
thorax -1.42744 -3.61572 -7.00083
lowerneck 10.4746 7.70038 -4.18859
upperneck 11.9517 9.89578 -11.9242
head 2.60383 4.23692 -3.34451
rclavicle -7.95139e-016 -9.54166e-015
rhumerus -431.426 44.2408 249.095
rradius 48.2786
rwrist 28.2138
rhand -41.3595 759.12
rfingers 7.12502
rthumb -14.2781 729.63
lclavicle -7.95139e-016 -9.54166e-015
lhumerus -558.287 177.026 -455.944
lradius 41.6503
lwrist 0.435745
lhand -58.0744 -723.163
lfingers 7.12502
lthumb -30.3169 24.3662
rfemur -615.484 -141.553 581.774
rtibia 101.017
rfoot 18.0079 -15.6159
rtoes 25.3333
lfemur 110.491 129.539 128.586
ltibia 121.793
lfoot -131.64 20.9503
ltoes 25.6161
